<svg width="52" height="52" viewBox="0 0 52 52" fill="none" xmlns="http://www.w3.org/2000/svg">
<path d="M35 32C35 35.866 29.866 41 26 41C22.134 41 17 35.866 17 32C17 28.134 22.134 27 26 27C29.866 27 35 28.134 35 32Z" fill="url(#paint0_linear_50_11)"/>
<path d="M37.75 31.3283C37.75 37.8176 32.4893 43.0783 26 43.0783C19.5107 43.0783 14.25 37.8176 14.25 31.3283C14.25 30.5084 14.3343 29.976 14.4734 29.6533C14.5414 29.4955 14.6175 29.3996 14.6921 29.3421C14.7643 29.2864 14.8487 29.2559 14.9551 29.2508C15.1841 29.2397 15.5027 29.3464 15.9277 29.5834C16.3444 29.8158 16.8247 30.1505 17.3677 30.5452C17.5331 30.6654 17.7038 30.7909 17.8797 30.9201C18.8507 31.6335 19.9777 32.4616 21.2075 33.146C22.6616 33.9553 24.2834 34.5783 26 34.5783C27.7166 34.5783 29.3384 33.9553 30.7925 33.146C32.0223 32.4616 33.1493 31.6335 34.1203 30.9201C34.2962 30.7909 34.4669 30.6654 34.6323 30.5452C35.1753 30.1505 35.6556 29.8158 36.0723 29.5834C36.4973 29.3464 36.8159 29.2397 37.0449 29.2508C37.1513 29.2559 37.2357 29.2864 37.3079 29.3421C37.3825 29.3996 37.4586 29.4955 37.5266 29.6533C37.6657 29.976 37.75 30.5084 37.75 31.3283Z" fill="#110000" stroke="white" stroke-width="0.5"/>
<g filter="url(#filter0_d_50_11)">
<path d="M25.3098 15.5854C25.3697 15.4011 25.6303 15.4011 25.6902 15.5854L27.3635 20.7352C27.3902 20.8176 27.467 20.8734 27.5537 20.8734L32.9684 20.8734C33.1622 20.8734 33.2427 21.1213 33.086 21.2352L28.7054 24.4179C28.6353 24.4688 28.6059 24.5591 28.6327 24.6415L30.306 29.7912C30.3658 29.9755 30.1549 30.1287 29.9982 30.0148L25.6176 26.8321C25.5475 26.7812 25.4525 26.7812 25.3824 26.8321L21.0018 30.0148C20.8451 30.1287 20.6342 29.9755 20.694 29.7912L22.3673 24.6415C22.3941 24.5591 22.3647 24.4688 22.2946 24.4179L17.914 21.2352C17.7573 21.1213 17.8378 20.8734 18.0316 20.8734L23.4463 20.8734C23.533 20.8734 23.6098 20.8176 23.6365 20.7352L25.3098 15.5854Z" fill="#051200"/>
<path d="M23.8743 20.8124L25.5 15.809L27.1257 20.8124C27.1859 20.9978 27.3587 21.1234 27.5537 21.1234L32.8146 21.1234L28.5584 24.2156C28.4007 24.3302 28.3347 24.5333 28.3949 24.7187L30.0206 29.7221L25.7645 26.6299C25.6068 26.5153 25.3932 26.5153 25.2355 26.6299L20.9794 29.7221L22.6051 24.7187C22.6653 24.5333 22.5993 24.3302 22.4416 24.2156L18.1854 21.1234L23.4463 21.1234C23.6413 21.1234 23.8141 20.9978 23.8743 20.8124Z" stroke="white" stroke-width="0.5"/>
</g>
<defs>
<filter id="filter0_d_50_11" x="12.8311" y="8.4472" width="25.3379" height="24.6068" filterUnits="userSpaceOnUse" color-interpolation-filters="sRGB">
<feFlood flood-opacity="0" result="BackgroundImageFix"/>
<feColorMatrix in="SourceAlpha" type="matrix" values="0 0 0 0 0 0 0 0 0 0 0 0 0 0 0 0 0 0 127 0" result="hardAlpha"/>
<feOffset dy="-2"/>
<feGaussianBlur stdDeviation="2.5"/>
<feComposite in2="hardAlpha" operator="out"/>
<feColorMatrix type="matrix" values="0 0 0 0 0.775833 0 0 0 0 0.791667 0 0 0 0 0 0 0 0 1 0"/>
<feBlend mode="normal" in2="BackgroundImageFix" result="effect1_dropShadow_50_11"/>
<feBlend mode="normal" in="SourceGraphic" in2="effect1_dropShadow_50_11" result="shape"/>
</filter>
<linearGradient id="paint0_linear_50_11" x1="19" y1="35" x2="33" y2="35" gradientUnits="userSpaceOnUse">
<stop stop-color="#F8FB75"/>
<stop offset="1" stop-color="#C6CA00"/>
</linearGradient>
</defs>
</svg>
